<?xml version="1.0" encoding="utf-8"?>
<!-- Generator: Adobe Illustrator 17.1.0, SVG Export Plug-In . SVG Version: 6.00 Build 0)  -->
<!DOCTYPE svg PUBLIC "-//W3C//DTD SVG 1.1//EN" "http://www.w3.org/Graphics/SVG/1.1/DTD/svg11.dtd">
<svg version="1.1" id="Layer_1" xmlns="http://www.w3.org/2000/svg" xmlns:xlink="http://www.w3.org/1999/xlink" x="0px" y="0px"
	 viewBox="0 0 26.7 30.3" enable-background="new 0 0 26.7 30.3" xml:space="preserve">
<g>
	<path fill-rule="evenodd" clip-rule="evenodd" fill="#6863A7" d="M21.6,28.5H5.8c-1.4,0-2.5-1.1-2.5-2.5V5.2c0-1.4,1.1-2.5,2.5-2.5
		h15.9c1.4,0,2.5,1.1,2.5,2.5V26C24.1,27.4,23,28.5,21.6,28.5L21.6,28.5z M23.2,5.3c0-1-0.8-1.8-1.8-1.8H5.9c-1,0-1.8,0.8-1.8,1.8
		v20.6c0,1,0.8,1.8,1.8,1.8h15.6c1,0,1.8-0.8,1.8-1.8V5.3L23.2,5.3z"/>
	<path fill="#6863A7" d="M16.3,24.9V14.7c0,0,0.7-2.4-8.2,1c0,0,0-9.5,0-9.5l2.9,0v6.1c0,0,8.1-3.2,8.1,2.4c0,5.6,0,10.2,0,10.2
		H16.3L16.3,24.9z M18,9.9c0,0-3,0-3.1,0C16,8.6,17,6.2,17,6.2h3.2C20.2,6.2,19.6,7.7,18,9.9L18,9.9z M8.2,24.9v-5.8l2.9,2.9
		L8.2,24.9L8.2,24.9z"/>
</g>
</svg>
